<?xml version="1.0" standalone="no"?>
<!DOCTYPE svg PUBLIC "-//W3C//DTD SVG 20010904//EN"
 "http://www.w3.org/TR/2001/REC-SVG-20010904/DTD/svg10.dtd">
<svg version="1.0" xmlns="http://www.w3.org/2000/svg"
 width="200.000000pt" height="34.000000pt" viewBox="0 0 200.000000 34.000000"
 preserveAspectRatio="xMidYMid meet">
<metadata>
Created by potrace 1.15, written by Peter Selinger 2001-2017
</metadata>
<g transform="translate(0.000000,34.000000) scale(0.100000,-0.100000)"
fill="#000000" stroke="none">
<path d="M87 333 c-4 -3 -7 -15 -7 -26 0 -11 -5 -38 -12 -60 -9 -29 -19 -42
-40 -49 -32 -11 -36 -23 -12 -36 14 -8 14 -12 0 -47 -18 -42 -20 -65 -7 -65 5
0 19 25 31 56 19 45 27 54 44 52 17 -2 22 -12 26 -55 7 -68 21 -83 58 -62 15
9 26 22 24 30 -1 9 2 8 11 -3 8 -10 20 -18 28 -18 22 1 49 25 51 46 0 10 4 -1
7 -26 8 -61 36 -66 73 -14 25 35 27 35 37 15 16 -29 45 -26 72 7 l22 27 -6
-29 c-7 -39 1 -56 24 -56 38 0 55 55 73 248 5 49 4 54 -20 64 -32 15 -39 6
-53 -66 -6 -33 -13 -61 -15 -63 -2 -3 -13 1 -24 8 -28 17 -49 -1 -78 -69 -13
-28 -25 -52 -27 -52 -2 0 -2 24 0 52 3 35 0 59 -9 71 -14 18 -15 18 -45 -7
-23 -20 -30 -22 -29 -10 1 21 -27 39 -48 31 -11 -4 -16 -19 -17 -44 -1 -21 -4
-49 -8 -63 -5 -19 -10 -8 -19 50 -19 112 -20 115 -43 143 -19 26 -48 35 -62
20z"/>
<path d="M1105 328 c-2 -7 -9 -39 -15 -70 -6 -32 -13 -58 -16 -58 -2 0 -13 5
-23 12 -25 15 -43 1 -78 -63 -14 -27 -29 -49 -32 -49 -3 0 -6 24 -6 52 0 44
-3 53 -19 56 -10 2 -23 -3 -28 -12 -11 -20 -52 -21 -72 -1 -22 22 -42 18 -65
-11 l-21 -27 0 27 c0 31 -24 44 -51 28 -24 -16 -29 -15 -29 3 0 9 -9 15 -24
15 -22 0 -25 -6 -35 -63 -16 -94 -15 -117 8 -117 14 0 26 15 42 51 21 45 25
49 36 33 10 -14 15 -15 28 -4 13 11 15 8 15 -23 0 -36 11 -50 48 -62 17 -5 30
1 56 27 l33 33 11 -27 c13 -35 39 -36 73 -4 l26 24 12 -24 c14 -32 44 -31 72
4 l22 27 -6 -29 c-6 -38 1 -56 23 -56 36 0 56 49 65 159 4 36 8 83 11 103 3
29 0 40 -15 48 -26 13 -41 13 -46 -2z"/>
<path d="M1832 331 c-7 -4 -18 -40 -24 -79 -13 -80 -25 -90 -71 -59 -27 19
-28 19 -69 -2 -41 -20 -41 -20 -69 -1 -36 27 -54 25 -78 -7 -42 -52 -40 -111
4 -131 30 -14 69 -2 87 28 15 23 28 26 28 6 0 -16 17 -31 46 -40 29 -9 81 35
93 77 7 25 8 19 4 -27 l-6 -58 54 7 c42 5 59 13 76 33 36 45 58 66 79 78 25
15 12 29 -14 15 -16 -8 -21 -6 -30 14 -8 17 -20 25 -37 25 -23 0 -25 3 -25 49
0 32 -6 55 -16 65 -18 19 -15 18 -32 7z"/>
<path d="M1316 314 c-3 -9 -6 -29 -6 -45 0 -17 -7 -64 -16 -105 -17 -83 -12
-114 17 -114 26 0 59 35 59 63 0 12 10 36 21 52 20 28 21 29 15 5 -18 -70 -18
-120 -2 -145 19 -29 29 -31 49 -11 16 16 44 233 34 260 -11 29 -44 18 -76 -26
l-31 -42 0 50 c0 28 -5 55 -12 62 -17 17 -45 15 -52 -4z"/>
</g>
</svg>
